<?xml version="1.0" encoding="UTF-8"?>
<level>
  <owner>Fistachka</owner>
  <repo>razboyniki</repo>
  <version>v1.0.2</version>
  <next number="1" owner="stolbitsa" repo="v-lesu-rodilas-elochka"/>
  <readme>
    <ru>144188af5c10a05ed579b6b74e0a46b477133b5259d63d2d75568b6afa611618</ru>
    <en>9f9859ec5f9e4ccdf17fb30b45cf5318808443a80eb291b2794c4eb9fe686fe5</en>
  </readme>
  <license>b1b99f5538d1fd3702219bff50c665196dfa42f6ee755c37fe41a6178d6bc6e5</license>
  <exercise number="1">
    <scale>major</scale>
    <bpm>108</bpm>
    <lowestNote>18</lowestNote>
    <tonalities>1</tonalities>
    <video name="1.8.mp4" size="2021724" type="video/mp4" volume="1">22ba84df2106dc3ce95a5a20f15c594581028ffffda382b9309b1c6ed4bbcd38</video>
    <notes>
      <note number="1" values="58" ticks="0" durationTicks="44" ppq="96" velocity="0.799"/>
      <note number="2" values="68" ticks="48" durationTicks="47" ppq="96" velocity="0.882"/>
      <note number="3" values="68" ticks="97" durationTicks="48" ppq="96" velocity="0.787"/>
      <note number="4" values="188" ticks="144" durationTicks="46" ppq="96" velocity="0.847"/>
      <note number="5" values="68" ticks="191" durationTicks="43" ppq="96" velocity="0.742"/>
      <note number="6" values="58" ticks="239" durationTicks="50" ppq="96" velocity="0.872"/>
      <note number="7" values="18,48" ticks="288" durationTicks="47" ppq="96" velocity="0.774"/>
      <note number="8" values="18,48" ticks="672" durationTicks="95" ppq="96" velocity="0.774"/>
    </notes>
  </exercise>
  <exercise number="2">
    <scale>major</scale>
    <bpm>108</bpm>
    <lowestNote>18</lowestNote>
    <tonalities>1</tonalities>
    <video name="2.7.mp4" size="1797869" type="video/mp4" volume="1">d11a8d71eae95466c29ef8befa200a5942393028baaee383b303a22a96811ef2</video>
    <notes>
      <note number="1" values="48" ticks="31" durationTicks="96" ppq="192" velocity="0.784"/>
      <note number="2" values="38" ticks="129" durationTicks="97" ppq="192" velocity="0.864"/>
      <note number="3" values="28" ticks="226" durationTicks="95" ppq="192" velocity="0.777"/>
      <note number="4" values="38" ticks="325" durationTicks="83" ppq="192" velocity="0.837"/>
      <note number="5" values="48" ticks="416" durationTicks="96" ppq="192" velocity="0.769"/>
      <note number="6" values="58" ticks="513" durationTicks="94" ppq="192" velocity="0.904"/>
      <note number="7" values="58" ticks="1152" durationTicks="191" ppq="192" velocity="0.904"/>
    </notes>
  </exercise>
  <exercise number="3">
    <scale>major</scale>
    <bpm>108</bpm>
    <lowestNote>18</lowestNote>
    <tonalities>1</tonalities>
    <video name="3.8.mp4" size="581814" type="video/mp4" volume="1">f5e411d26586c92ea892a2b71d15c2f828a28a8eeda32c46eeeb339b5b3e0da9</video>
    <notes>
      <note number="1" values="58" ticks="41" durationTicks="53" ppq="96" velocity="0.882"/>
      <note number="2" values="188" ticks="113" durationTicks="46" ppq="96" velocity="0.913"/>
      <note number="3" values="38" ticks="161" durationTicks="48" ppq="96" velocity="0.792"/>
      <note number="4" values="48" ticks="207" durationTicks="49" ppq="96" velocity="0.832"/>
      <note number="5" values="58" ticks="257" durationTicks="42" ppq="96" velocity="0.782"/>
      <note number="6" values="68" ticks="303" durationTicks="48" ppq="96" velocity="0.857"/>
      <note number="7" values="78" ticks="354" durationTicks="46" ppq="96" velocity="0.752"/>
      <note number="8" values="188" ticks="401" durationTicks="65" ppq="96" velocity="0.919"/>
    </notes>
  </exercise>
  <exercise number="4">
    <scale>major</scale>
    <bpm>108</bpm>
    <lowestNote>18</lowestNote>
    <tonalities>1</tonalities>
    <video name="4.7.mp4" size="1050908" type="video/mp4" volume="1">3bc8b4f7ca534f5bb065ab5c203a570ddab5a0c4f0de8296f397074da32eade5</video>
    <notes>
      <note number="1" values="48" ticks="0" durationTicks="49" ppq="96" velocity="0.779"/>
      <note number="2" values="38" ticks="47" durationTicks="48" ppq="96" velocity="0.913"/>
      <note number="3" values="38" ticks="96" durationTicks="48" ppq="96" velocity="0.699"/>
      <note number="4" values="28" ticks="144" durationTicks="46" ppq="96" velocity="0.774"/>
      <note number="5" values="28" ticks="192" durationTicks="46" ppq="96" velocity="0.729"/>
      <note number="6" values="18" ticks="240" durationTicks="44" ppq="96" velocity="0.814"/>
      <note number="7" values="18" ticks="576" durationTicks="95" ppq="96" velocity="0.814"/>
    </notes>
  </exercise>
  <exercise number="5">
    <scale>major</scale>
    <bpm>108</bpm>
    <lowestNote>18</lowestNote>
    <tonalities>1</tonalities>
    <video name="5.6.mp4" size="1478791" type="video/mp4" volume="1">5143099cd736e45f361964e896b144037ecad57d5f235f909465b606a2862a60</video>
    <notes>
      <note number="1" values="18" ticks="0" durationTicks="49" ppq="96" velocity="0.843"/>
      <note number="2" values="48" ticks="48" durationTicks="23" ppq="96" velocity="0.913"/>
      <note number="3" values="48" ticks="95" durationTicks="24" ppq="96" velocity="0.874"/>
      <note number="4" values="48" ticks="144" durationTicks="23" ppq="96" velocity="0.921"/>
      <note number="5" values="48" ticks="191" durationTicks="41" ppq="96" velocity="0.921"/>
      <note number="6" values="48" ticks="480" durationTicks="95" ppq="96" velocity="0.921"/>
    </notes>
  </exercise>
  <exercise number="6">
    <scale>major</scale>
    <bpm>108</bpm>
    <lowestNote>18</lowestNote>
    <tonalities>1</tonalities>
    <video name="6.7.mp4" size="1302654" type="video/mp4" volume="1">ec8c8511c1adfc399e6713b7b32a72b5c3635dbb80399ac5f300048b1460dd39</video>
    <notes>
      <note number="1" values="18" ticks="49" durationTicks="96" ppq="192" velocity="0.945"/>
      <note number="2" values="48" ticks="143" durationTicks="54" ppq="192" velocity="0.953"/>
      <note number="3" values="48" ticks="241" durationTicks="48" ppq="192" velocity="0.945"/>
      <note number="4" values="48" ticks="335" durationTicks="46" ppq="192" velocity="0.953"/>
      <note number="5" values="48" ticks="432" durationTicks="45" ppq="192" velocity="0.937"/>
      <note number="6" values="18" ticks="527" durationTicks="190" ppq="192" velocity="0.945"/>
      <note number="7" values="18" ticks="1152" durationTicks="191" ppq="192" velocity="0.945"/>
    </notes>
  </exercise>
  <exercise number="7">
    <scale>major</scale>
    <bpm>108</bpm>
    <lowestNote>18</lowestNote>
    <tonalities>1</tonalities>
    <video name="7.8.mp4" size="2080969" type="video/mp4" volume="1">e985b7af13b89cd957d722855f108124b45818b41f754e0059cbde032ae56822</video>
    <notes>
      <note number="1" values="18" ticks="23" durationTicks="26" ppq="96" velocity="0.843"/>
      <note number="2" values="18" ticks="73" durationTicks="41" ppq="96" velocity="0.913"/>
      <note number="3" values="18" ticks="119" durationTicks="26" ppq="96" velocity="0.874"/>
      <note number="4" values="18" ticks="167" durationTicks="36" ppq="96" velocity="0.921"/>
      <note number="5" values="28" ticks="214" durationTicks="28" ppq="96" velocity="0.921"/>
      <note number="6" values="28" ticks="265" durationTicks="46" ppq="96" velocity="0.921"/>
      <note number="7" values="18" ticks="311" durationTicks="25" ppq="96" velocity="0.921"/>
      <note number="8" values="18" ticks="672" durationTicks="95" ppq="96" velocity="0.921"/>
    </notes>
  </exercise>
  <exercise number="8">
    <scale>major</scale>
    <bpm>108</bpm>
    <lowestNote>18</lowestNote>
    <tonalities>1</tonalities>
    <video name="8.7.mp4" size="1200605" type="video/mp4" volume="1">26fd6f65e1074ac5280e4f244084e56ddfd423fc4401bb345693a8c8d128b976</video>
    <notes>
      <note number="1" values="18" ticks="4" durationTicks="24" ppq="96" velocity="0.843"/>
      <note number="2" values="18" ticks="51" durationTicks="46" ppq="96" velocity="0.913"/>
      <note number="3" values="188" ticks="100" durationTicks="23" ppq="96" velocity="0.874"/>
      <note number="4" values="188" ticks="144" durationTicks="43" ppq="96" velocity="0.921"/>
      <note number="5" values="18" ticks="192" durationTicks="95" ppq="96" velocity="0.921"/>
      <note number="6" values="18" ticks="480" durationTicks="95" ppq="96" velocity="0.921"/>
      <note number="7" values="18" ticks="576" durationTicks="95" ppq="96" velocity="0.921"/>
    </notes>
  </exercise>
  <exercise number="9">
    <scale>major</scale>
    <bpm>108</bpm>
    <lowestNote>18</lowestNote>
    <tonalities>1</tonalities>
    <video name="9.8.mp4" size="873006" type="video/mp4" volume="1">09f587dd51bae1c93d19bfcd88bb953f67e9b8c65faea79440aeb1cbe584b979</video>
    <notes>
      <note number="1" values="18" ticks="175" durationTicks="151" ppq="192" velocity="0.354"/>
      <note number="2" values="18" ticks="362" durationTicks="358" ppq="192" velocity="0.366"/>
      <note number="3" values="18" ticks="191" durationTicks="95" ppq="96" velocity="0.913"/>
      <note number="4" values="18" ticks="191" durationTicks="192" ppq="96" velocity="0.913"/>
      <note number="5" values="18" ticks="384" durationTicks="95" ppq="96" velocity="0.913"/>
      <note number="6" values="18" ticks="480" durationTicks="95" ppq="96" velocity="0.913"/>
      <note number="7" values="18" ticks="576" durationTicks="95" ppq="96" velocity="0.913"/>
      <note number="8" values="18" ticks="672" durationTicks="95" ppq="96" velocity="0.913"/>
    </notes>
  </exercise>
  <exercise number="10">
    <scale>major</scale>
    <bpm>108</bpm>
    <lowestNote>18</lowestNote>
    <tonalities>1</tonalities>
    <video name="10.8.mp4" size="1850870" type="video/mp4" volume="1">5716cd11db501385d691f846c9da6599e5de0e346e17af150a0f9baf138a6a55</video>
    <notes>
      <note number="1" values="18" ticks="0" durationTicks="105" ppq="96" velocity="0.843"/>
      <note number="2" values="18" ticks="56" durationTicks="91" ppq="96" velocity="0.913"/>
      <note number="3" values="18" ticks="146" durationTicks="208" ppq="96" velocity="0.874"/>
      <note number="4" values="18" ticks="196" durationTicks="161" ppq="96" velocity="0.921"/>
      <note number="5" values="18" ticks="384" durationTicks="95" ppq="96" velocity="0.921"/>
      <note number="6" values="188" ticks="312" durationTicks="95" ppq="96" velocity="0.921"/>
      <note number="7" values="188" ticks="576" durationTicks="95" ppq="96" velocity="0.921"/>
      <note number="8" values="188" ticks="672" durationTicks="95" ppq="96" velocity="0.921"/>
    </notes>
  </exercise>
  <exercise number="11">
    <scale>major</scale>
    <bpm>108</bpm>
    <lowestNote>18</lowestNote>
    <tonalities>1</tonalities>
    <video name="11.7.mp4" size="799429" type="video/mp4" volume="1">0e3dedac5dcf222463acf403a03e71043a4673c26459347d43463f1a6b58fa6b</video>
    <notes>
      <note number="1" values="18" ticks="0" durationTicks="105" ppq="96" velocity="0.843"/>
      <note number="2" values="18" ticks="56" durationTicks="91" ppq="96" velocity="0.913"/>
      <note number="3" values="18" ticks="146" durationTicks="208" ppq="96" velocity="0.874"/>
      <note number="4" values="18" ticks="196" durationTicks="161" ppq="96" velocity="0.921"/>
      <note number="5" values="18" ticks="384" durationTicks="95" ppq="96" velocity="0.921"/>
      <note number="6" values="18" ticks="480" durationTicks="95" ppq="96" velocity="0.921"/>
      <note number="7" values="18" ticks="576" durationTicks="95" ppq="96" velocity="0.921"/>
    </notes>
  </exercise>
  <exercise number="12">
    <scale>major</scale>
    <bpm>108</bpm>
    <lowestNote>18</lowestNote>
    <tonalities>1</tonalities>
    <video name="12.6.mp4" size="1101465" type="video/mp4" volume="1">6b5d20b36ebd8836a914d9e6457cee2aba991a1e581f99876e94ac8b8cadbd4d</video>
    <notes>
      <note number="1" values="18" ticks="0" durationTicks="105" ppq="96" velocity="0.843"/>
      <note number="2" values="18" ticks="56" durationTicks="91" ppq="96" velocity="0.913"/>
      <note number="3" values="18" ticks="146" durationTicks="208" ppq="96" velocity="0.874"/>
      <note number="4" values="18" ticks="196" durationTicks="161" ppq="96" velocity="0.921"/>
      <note number="5" values="18" ticks="384" durationTicks="95" ppq="96" velocity="0.921"/>
      <note number="6" values="18" ticks="480" durationTicks="95" ppq="96" velocity="0.921"/>
    </notes>
  </exercise>
  <exercise number="13">
    <scale>major</scale>
    <bpm>108</bpm>
    <lowestNote>18</lowestNote>
    <tonalities>1</tonalities>
    <video name="13.7.mp4" size="715848" type="video/mp4" volume="1">c17f89585f731b41243363dcd116866f0f511ea8cf1dc434aa70677fd5319e12</video>
    <notes>
      <note number="1" values="18" ticks="0" durationTicks="105" ppq="96" velocity="0.843"/>
      <note number="2" values="18" ticks="56" durationTicks="91" ppq="96" velocity="0.913"/>
      <note number="3" values="18" ticks="146" durationTicks="208" ppq="96" velocity="0.874"/>
      <note number="4" values="18" ticks="196" durationTicks="161" ppq="96" velocity="0.921"/>
      <note number="5" values="18" ticks="384" durationTicks="95" ppq="96" velocity="0.921"/>
      <note number="6" values="18" ticks="480" durationTicks="95" ppq="96" velocity="0.921"/>
      <note number="7" values="18" ticks="576" durationTicks="95" ppq="96" velocity="0.921"/>
    </notes>
  </exercise>
  <exercise number="14">
    <scale>major</scale>
    <bpm>108</bpm>
    <lowestNote>18</lowestNote>
    <tonalities>1</tonalities>
    <video name="14.9.mp4" size="2004553" type="video/mp4" volume="1">e7d4b5f987bf18ccea21902406ee1864c6a277619b49ff89cfc60d35080d38b8</video>
    <notes>
      <note number="1" values="18" ticks="0" durationTicks="105" ppq="96" velocity="0.843"/>
      <note number="2" values="18" ticks="56" durationTicks="91" ppq="96" velocity="0.913"/>
      <note number="3" values="18" ticks="146" durationTicks="208" ppq="96" velocity="0.874"/>
      <note number="4" values="18" ticks="196" durationTicks="161" ppq="96" velocity="0.921"/>
      <note number="5" values="18" ticks="384" durationTicks="95" ppq="96" velocity="0.921"/>
      <note number="6" values="18" ticks="480" durationTicks="95" ppq="96" velocity="0.921"/>
      <note number="7" values="18" ticks="576" durationTicks="95" ppq="96" velocity="0.921"/>
      <note number="8" values="18" ticks="672" durationTicks="95" ppq="96" velocity="0.921"/>
      <note number="9" values="18" ticks="768" durationTicks="95" ppq="96" velocity="0.921"/>
    </notes>
  </exercise>
</level>
